<svg width="339" height="68" viewBox="0 0 339 68" fill="none" xmlns="http://www.w3.org/2000/svg">
<g filter="url(#filter0_d_11_191)">
<rect x="2" y="1" width="335" height="64" rx="5" fill="url(#paint0_linear_11_191)" shape-rendering="crispEdges"/>
<path d="M31 19.2002C23.3908 19.2002 17.2 25.391 17.2 33.0002C17.2 35.3762 17.8138 37.7126 18.9778 39.7742L17.2222 46.0382C17.1646 46.244 17.2204 46.4648 17.3692 46.6178C17.4838 46.736 17.6398 46.8002 17.8 46.8002C17.848 46.8002 17.8966 46.7942 17.944 46.7828L24.4816 45.1634C26.4778 46.235 28.726 46.8002 31 46.8002C38.6092 46.8002 44.8 40.6094 44.8 33.0002C44.8 25.391 38.6092 19.2002 31 19.2002ZM37.942 37.8698C37.6468 38.687 36.2308 39.4328 35.5504 39.533C34.9396 39.6224 34.1668 39.6608 33.3184 39.3944C32.8042 39.2324 32.1442 39.0176 31.2988 38.657C27.745 37.1414 25.4242 33.608 25.2466 33.3746C25.0696 33.1412 23.8 31.478 23.8 29.7566C23.8 28.0352 24.715 27.1886 25.0402 26.8382C25.3654 26.4878 25.7488 26.4002 25.9852 26.4002C26.2216 26.4002 26.4574 26.4032 26.6644 26.4128C26.8822 26.4236 27.1744 26.3306 27.4618 27.0134C27.757 27.7142 28.4656 29.4356 28.5532 29.6114C28.642 29.7866 28.7008 29.9912 28.5832 30.2246C28.4656 30.458 28.4068 30.6038 28.2292 30.8084C28.0516 31.013 27.8572 31.2644 27.6976 31.4216C27.52 31.5962 27.3358 31.7852 27.5422 32.1356C27.7486 32.486 28.4596 33.6314 29.5132 34.559C30.8662 35.7506 32.008 36.1202 32.362 36.2954C32.716 36.4706 32.923 36.4412 33.1294 36.2078C33.3358 35.9738 34.015 35.186 34.2508 34.8362C34.4866 34.4864 34.723 34.544 35.0482 34.661C35.3734 34.7774 37.1152 35.6234 37.4692 35.7986C37.8232 35.9738 38.0596 36.0614 38.1484 36.2072C38.2372 36.3524 38.2372 37.0532 37.942 37.8698Z" fill="#539834"/>
<path d="M75.8164 24.748V27.46H68.8324V31.756H74.1844V34.42H68.8324V41.5H65.4724V24.748H75.8164ZM77.335 34.804C77.335 33.46 77.599 32.268 78.127 31.228C78.671 30.188 79.399 29.388 80.311 28.828C81.239 28.268 82.271 27.988 83.407 27.988C84.399 27.988 85.263 28.188 85.999 28.588C86.751 28.988 87.351 29.492 87.799 30.1V28.204H91.183V41.5H87.799V39.556C87.367 40.18 86.767 40.7 85.999 41.116C85.247 41.516 84.375 41.716 83.383 41.716C82.263 41.716 81.239 41.428 80.311 40.852C79.399 40.276 78.671 39.468 78.127 38.428C77.599 37.372 77.335 36.164 77.335 34.804ZM87.799 34.852C87.799 34.036 87.639 33.34 87.319 32.764C86.999 32.172 86.567 31.724 86.023 31.42C85.479 31.1 84.895 30.94 84.271 30.94C83.647 30.94 83.071 31.092 82.543 31.396C82.015 31.7 81.583 32.148 81.247 32.74C80.927 33.316 80.767 34.004 80.767 34.804C80.767 35.604 80.927 36.308 81.247 36.916C81.583 37.508 82.015 37.964 82.543 38.284C83.087 38.604 83.663 38.764 84.271 38.764C84.895 38.764 85.479 38.612 86.023 38.308C86.567 37.988 86.999 37.54 87.319 36.964C87.639 36.372 87.799 35.668 87.799 34.852ZM97.8246 23.74V41.5H94.4646V23.74H97.8246ZM113.504 34.564C113.504 35.044 113.472 35.476 113.408 35.86H103.688C103.768 36.82 104.104 37.572 104.696 38.116C105.288 38.66 106.016 38.932 106.88 38.932C108.128 38.932 109.016 38.396 109.544 37.324H113.168C112.784 38.604 112.048 39.66 110.96 40.492C109.872 41.308 108.536 41.716 106.952 41.716C105.672 41.716 104.52 41.436 103.496 40.876C102.488 40.3 101.696 39.492 101.12 38.452C100.56 37.412 100.28 36.212 100.28 34.852C100.28 33.476 100.56 32.268 101.12 31.228C101.68 30.188 102.464 29.388 103.472 28.828C104.48 28.268 105.64 27.988 106.952 27.988C108.216 27.988 109.344 28.26 110.336 28.804C111.344 29.348 112.12 30.124 112.664 31.132C113.224 32.124 113.504 33.268 113.504 34.564ZM110.024 33.604C110.008 32.74 109.696 32.052 109.088 31.54C108.48 31.012 107.736 30.748 106.856 30.748C106.024 30.748 105.32 31.004 104.744 31.516C104.184 32.012 103.84 32.708 103.712 33.604H110.024ZM125.036 30.124C125.468 29.516 126.06 29.012 126.812 28.612C127.58 28.196 128.452 27.988 129.428 27.988C130.564 27.988 131.588 28.268 132.5 28.828C133.428 29.388 134.156 30.188 134.684 31.228C135.228 32.252 135.5 33.444 135.5 34.804C135.5 36.164 135.228 37.372 134.684 38.428C134.156 39.468 133.428 40.276 132.5 40.852C131.588 41.428 130.564 41.716 129.428 41.716C128.452 41.716 127.588 41.516 126.836 41.116C126.1 40.716 125.5 40.212 125.036 39.604V47.836H121.676V28.204H125.036V30.124ZM132.068 34.804C132.068 34.004 131.9 33.316 131.564 32.74C131.244 32.148 130.812 31.7 130.268 31.396C129.74 31.092 129.164 30.94 128.54 30.94C127.932 30.94 127.356 31.1 126.812 31.42C126.284 31.724 125.852 32.172 125.516 32.764C125.196 33.356 125.036 34.052 125.036 34.852C125.036 35.652 125.196 36.348 125.516 36.94C125.852 37.532 126.284 37.988 126.812 38.308C127.356 38.612 127.932 38.764 128.54 38.764C129.164 38.764 129.74 38.604 130.268 38.284C130.812 37.964 131.244 37.508 131.564 36.916C131.9 36.324 132.068 35.62 132.068 34.804ZM150.301 34.564C150.301 35.044 150.269 35.476 150.205 35.86H140.485C140.565 36.82 140.901 37.572 141.493 38.116C142.085 38.66 142.813 38.932 143.677 38.932C144.925 38.932 145.813 38.396 146.341 37.324H149.965C149.581 38.604 148.845 39.66 147.757 40.492C146.669 41.308 145.333 41.716 143.749 41.716C142.469 41.716 141.317 41.436 140.293 40.876C139.285 40.3 138.493 39.492 137.917 38.452C137.357 37.412 137.077 36.212 137.077 34.852C137.077 33.476 137.357 32.268 137.917 31.228C138.477 30.188 139.261 29.388 140.269 28.828C141.277 28.268 142.437 27.988 143.749 27.988C145.013 27.988 146.141 28.26 147.133 28.804C148.141 29.348 148.917 30.124 149.461 31.132C150.021 32.124 150.301 33.268 150.301 34.564ZM146.821 33.604C146.805 32.74 146.493 32.052 145.885 31.54C145.277 31.012 144.533 30.748 143.653 30.748C142.821 30.748 142.117 31.004 141.541 31.516C140.981 32.012 140.637 32.708 140.509 33.604H146.821ZM156.114 23.74V41.5H152.754V23.74H156.114ZM165.337 41.716C164.057 41.716 162.905 41.436 161.881 40.876C160.857 40.3 160.049 39.492 159.457 38.452C158.881 37.412 158.593 36.212 158.593 34.852C158.593 33.492 158.889 32.292 159.481 31.252C160.089 30.212 160.913 29.412 161.953 28.852C162.993 28.276 164.153 27.988 165.433 27.988C166.713 27.988 167.873 28.276 168.913 28.852C169.953 29.412 170.769 30.212 171.361 31.252C171.969 32.292 172.273 33.492 172.273 34.852C172.273 36.212 171.961 37.412 171.337 38.452C170.729 39.492 169.897 40.3 168.841 40.876C167.801 41.436 166.633 41.716 165.337 41.716ZM165.337 38.788C165.945 38.788 166.513 38.644 167.041 38.356C167.585 38.052 168.017 37.604 168.337 37.012C168.657 36.42 168.817 35.7 168.817 34.852C168.817 33.588 168.481 32.62 167.809 31.948C167.153 31.26 166.345 30.916 165.385 30.916C164.425 30.916 163.617 31.26 162.961 31.948C162.321 32.62 162.001 33.588 162.001 34.852C162.001 36.116 162.313 37.092 162.937 37.78C163.577 38.452 164.377 38.788 165.337 38.788ZM202.849 24.748L198.169 41.5H194.209L191.065 29.572L187.777 41.5L183.841 41.524L179.329 24.748H182.929L185.881 37.756L189.289 24.748H193.033L196.249 37.684L199.225 24.748H202.849ZM212.531 28.012C213.539 28.012 214.435 28.236 215.219 28.684C216.003 29.116 216.611 29.764 217.043 30.628C217.491 31.476 217.715 32.5 217.715 33.7V41.5H214.355V34.156C214.355 33.1 214.091 32.292 213.563 31.732C213.035 31.156 212.315 30.868 211.403 30.868C210.475 30.868 209.739 31.156 209.195 31.732C208.667 32.292 208.403 33.1 208.403 34.156V41.5H205.043V23.74H208.403V29.86C208.835 29.284 209.411 28.836 210.131 28.516C210.851 28.18 211.651 28.012 212.531 28.012ZM220.046 34.804C220.046 33.46 220.31 32.268 220.838 31.228C221.382 30.188 222.11 29.388 223.022 28.828C223.95 28.268 224.982 27.988 226.118 27.988C227.11 27.988 227.974 28.188 228.71 28.588C229.462 28.988 230.062 29.492 230.51 30.1V28.204H233.894V41.5H230.51V39.556C230.078 40.18 229.478 40.7 228.71 41.116C227.958 41.516 227.086 41.716 226.094 41.716C224.974 41.716 223.95 41.428 223.022 40.852C222.11 40.276 221.382 39.468 220.838 38.428C220.31 37.372 220.046 36.164 220.046 34.804ZM230.51 34.852C230.51 34.036 230.35 33.34 230.03 32.764C229.71 32.172 229.278 31.724 228.734 31.42C228.19 31.1 227.606 30.94 226.982 30.94C226.358 30.94 225.782 31.092 225.254 31.396C224.726 31.7 224.294 32.148 223.958 32.74C223.638 33.316 223.478 34.004 223.478 34.804C223.478 35.604 223.638 36.308 223.958 36.916C224.294 37.508 224.726 37.964 225.254 38.284C225.798 38.604 226.374 38.764 226.982 38.764C227.606 38.764 228.19 38.612 228.734 38.308C229.278 37.988 229.71 37.54 230.03 36.964C230.35 36.372 230.51 35.668 230.51 34.852ZM241.088 30.964V37.396C241.088 37.844 241.192 38.172 241.4 38.38C241.624 38.572 241.992 38.668 242.504 38.668H244.064V41.5H241.952C239.12 41.5 237.704 40.124 237.704 37.372V30.964H236.12V28.204H237.704V24.916H241.088V28.204H244.064V30.964H241.088ZM251.568 41.716C250.48 41.716 249.504 41.524 248.64 41.14C247.776 40.74 247.088 40.204 246.576 39.532C246.08 38.86 245.808 38.116 245.76 37.3H249.144C249.208 37.812 249.456 38.236 249.888 38.572C250.336 38.908 250.888 39.076 251.544 39.076C252.184 39.076 252.68 38.948 253.032 38.692C253.4 38.436 253.584 38.108 253.584 37.708C253.584 37.276 253.36 36.956 252.912 36.748C252.48 36.524 251.784 36.284 250.824 36.028C249.832 35.788 249.016 35.54 248.376 35.284C247.752 35.028 247.208 34.636 246.744 34.108C246.296 33.58 246.072 32.868 246.072 31.972C246.072 31.236 246.28 30.564 246.696 29.956C247.128 29.348 247.736 28.868 248.52 28.516C249.32 28.164 250.256 27.988 251.328 27.988C252.912 27.988 254.176 28.388 255.12 29.188C256.064 29.972 256.584 31.036 256.68 32.38H253.464C253.416 31.852 253.192 31.436 252.792 31.132C252.408 30.812 251.888 30.652 251.232 30.652C250.624 30.652 250.152 30.764 249.816 30.988C249.496 31.212 249.336 31.524 249.336 31.924C249.336 32.372 249.56 32.716 250.008 32.956C250.456 33.18 251.152 33.412 252.096 33.652C253.056 33.892 253.848 34.14 254.472 34.396C255.096 34.652 255.632 35.052 256.08 35.596C256.544 36.124 256.784 36.828 256.8 37.708C256.8 38.476 256.584 39.164 256.152 39.772C255.736 40.38 255.128 40.86 254.328 41.212C253.544 41.548 252.624 41.716 251.568 41.716ZM258.694 34.804C258.694 33.46 258.958 32.268 259.486 31.228C260.03 30.188 260.758 29.388 261.67 28.828C262.598 28.268 263.63 27.988 264.766 27.988C265.758 27.988 266.622 28.188 267.358 28.588C268.11 28.988 268.71 29.492 269.158 30.1V28.204H272.542V41.5H269.158V39.556C268.726 40.18 268.126 40.7 267.358 41.116C266.606 41.516 265.734 41.716 264.742 41.716C263.622 41.716 262.598 41.428 261.67 40.852C260.758 40.276 260.03 39.468 259.486 38.428C258.958 37.372 258.694 36.164 258.694 34.804ZM269.158 34.852C269.158 34.036 268.998 33.34 268.678 32.764C268.358 32.172 267.926 31.724 267.382 31.42C266.838 31.1 266.254 30.94 265.63 30.94C265.006 30.94 264.43 31.092 263.902 31.396C263.374 31.7 262.942 32.148 262.606 32.74C262.286 33.316 262.126 34.004 262.126 34.804C262.126 35.604 262.286 36.308 262.606 36.916C262.942 37.508 263.374 37.964 263.902 38.284C264.446 38.604 265.022 38.764 265.63 38.764C266.254 38.764 266.838 38.612 267.382 38.308C267.926 37.988 268.358 37.54 268.678 36.964C268.998 36.372 269.158 35.668 269.158 34.852ZM279.184 30.124C279.616 29.516 280.208 29.012 280.96 28.612C281.728 28.196 282.6 27.988 283.576 27.988C284.712 27.988 285.736 28.268 286.648 28.828C287.576 29.388 288.304 30.188 288.832 31.228C289.376 32.252 289.648 33.444 289.648 34.804C289.648 36.164 289.376 37.372 288.832 38.428C288.304 39.468 287.576 40.276 286.648 40.852C285.736 41.428 284.712 41.716 283.576 41.716C282.6 41.716 281.736 41.516 280.984 41.116C280.248 40.716 279.648 40.212 279.184 39.604V47.836H275.824V28.204H279.184V30.124ZM286.216 34.804C286.216 34.004 286.048 33.316 285.712 32.74C285.392 32.148 284.96 31.7 284.416 31.396C283.888 31.092 283.312 30.94 282.688 30.94C282.08 30.94 281.504 31.1 280.96 31.42C280.432 31.724 280 32.172 279.664 32.764C279.344 33.356 279.184 34.052 279.184 34.852C279.184 35.652 279.344 36.348 279.664 36.94C280 37.532 280.432 37.988 280.96 38.308C281.504 38.612 282.08 38.764 282.688 38.764C283.312 38.764 283.888 38.604 284.416 38.284C284.96 37.964 285.392 37.508 285.712 36.916C286.048 36.324 286.216 35.62 286.216 34.804ZM295.45 30.124C295.882 29.516 296.474 29.012 297.226 28.612C297.994 28.196 298.866 27.988 299.842 27.988C300.978 27.988 302.002 28.268 302.914 28.828C303.842 29.388 304.57 30.188 305.098 31.228C305.642 32.252 305.914 33.444 305.914 34.804C305.914 36.164 305.642 37.372 305.098 38.428C304.57 39.468 303.842 40.276 302.914 40.852C302.002 41.428 300.978 41.716 299.842 41.716C298.866 41.716 298.002 41.516 297.25 41.116C296.514 40.716 295.914 40.212 295.45 39.604V47.836H292.09V28.204H295.45V30.124ZM302.482 34.804C302.482 34.004 302.314 33.316 301.978 32.74C301.658 32.148 301.226 31.7 300.682 31.396C300.154 31.092 299.578 30.94 298.954 30.94C298.346 30.94 297.77 31.1 297.226 31.42C296.698 31.724 296.266 32.172 295.93 32.764C295.61 33.356 295.45 34.052 295.45 34.852C295.45 35.652 295.61 36.348 295.93 36.94C296.266 37.532 296.698 37.988 297.226 38.308C297.77 38.612 298.346 38.764 298.954 38.764C299.578 38.764 300.154 38.604 300.682 38.284C301.226 37.964 301.658 37.508 301.978 36.916C302.314 36.324 302.482 35.62 302.482 34.804ZM312.699 24.46L312.315 36.052H309.483L309.075 24.46H312.699ZM310.971 41.668C310.363 41.668 309.859 41.484 309.459 41.116C309.075 40.732 308.883 40.26 308.883 39.7C308.883 39.14 309.075 38.676 309.459 38.308C309.859 37.924 310.363 37.732 310.971 37.732C311.563 37.732 312.051 37.924 312.435 38.308C312.819 38.676 313.011 39.14 313.011 39.7C313.011 40.26 312.819 40.732 312.435 41.116C312.051 41.484 311.563 41.668 310.971 41.668Z" fill="black"/>
</g>
<defs>
<filter id="filter0_d_11_191" x="0" y="0" width="339" height="68" filterUnits="userSpaceOnUse" color-interpolation-filters="sRGB">
<feFlood flood-opacity="0" result="BackgroundImageFix"/>
<feColorMatrix in="SourceAlpha" type="matrix" values="0 0 0 0 0 0 0 0 0 0 0 0 0 0 0 0 0 0 127 0" result="hardAlpha"/>
<feOffset dy="1"/>
<feGaussianBlur stdDeviation="1"/>
<feComposite in2="hardAlpha" operator="out"/>
<feColorMatrix type="matrix" values="0 0 0 0 0 0 0 0 0 0 0 0 0 0 0 0 0 0 0.1 0"/>
<feBlend mode="normal" in2="BackgroundImageFix" result="effect1_dropShadow_11_191"/>
<feBlend mode="normal" in="SourceGraphic" in2="effect1_dropShadow_11_191" result="shape"/>
</filter>
<linearGradient id="paint0_linear_11_191" x1="169.5" y1="1" x2="169.5" y2="65" gradientUnits="userSpaceOnUse">
<stop stop-color="#FF4305"/>
<stop offset="0.0001" stop-color="#FF4102"/>
<stop offset="1" stop-color="#FF551C"/>
</linearGradient>
</defs>
</svg>
