<svg width="204" height="44" viewBox="0 0 204 44" fill="none" xmlns="http://www.w3.org/2000/svg">
<g filter="url(#filter0_d_82_14)">
<rect x="2" y="1" width="200" height="40" rx="5" fill="#FEFEFE" shape-rendering="crispEdges"/>
<path d="M24.4999 14.1C20.6953 14.1 17.5999 17.1954 17.5999 21C17.5999 22.188 17.9068 23.3562 18.4888 24.387L17.611 27.519C17.5822 27.6219 17.6101 27.7323 17.6845 27.8088C17.7418 27.8679 17.8198 27.9 17.8999 27.9C17.9239 27.9 17.9482 27.897 17.9719 27.8913L21.2407 27.0816C22.2388 27.6174 23.3629 27.9 24.4999 27.9C28.3045 27.9 31.3999 24.8046 31.3999 21C31.3999 17.1954 28.3045 14.1 24.4999 14.1ZM27.9709 23.4348C27.8233 23.8434 27.1153 24.2163 26.7751 24.2664C26.4697 24.3111 26.0833 24.3303 25.6591 24.1971C25.402 24.1161 25.072 24.0087 24.6493 23.8284C22.8724 23.0706 21.712 21.3039 21.6232 21.1872C21.5347 21.0705 20.8999 20.2389 20.8999 19.3782C20.8999 18.5175 21.3574 18.0942 21.52 17.919C21.6826 17.7438 21.8743 17.7 21.9925 17.7C22.1107 17.7 22.2286 17.7015 22.3321 17.7063C22.441 17.7117 22.5871 17.6652 22.7308 18.0066C22.8784 18.357 23.2327 19.2177 23.2765 19.3056C23.3209 19.3932 23.3503 19.4955 23.2915 19.6122C23.2327 19.7289 23.2033 19.8018 23.1145 19.9041C23.0257 20.0064 22.9285 20.1321 22.8487 20.2107C22.7599 20.298 22.6678 20.3925 22.771 20.5677C22.8742 20.7429 23.2297 21.3156 23.7565 21.7794C24.433 22.3752 25.0039 22.56 25.1809 22.6476C25.3579 22.7352 25.4614 22.7205 25.5646 22.6038C25.6678 22.4868 26.0074 22.0929 26.1253 21.918C26.2432 21.7431 26.3614 21.7719 26.524 21.8304C26.6866 21.8886 27.5575 22.3116 27.7345 22.3992C27.9115 22.4868 28.0297 22.5306 28.0741 22.6035C28.1185 22.6761 28.1185 23.0265 27.9709 23.4348Z" fill="#539834"/>
<path d="M57.6582 17.124V18.48H54.1662V20.628H56.8422V21.96H54.1662V25.5H52.4862V17.124H57.6582ZM58.4175 22.152C58.4175 21.48 58.5495 20.884 58.8135 20.364C59.0855 19.844 59.4495 19.444 59.9055 19.164C60.3695 18.884 60.8855 18.744 61.4535 18.744C61.9495 18.744 62.3815 18.844 62.7495 19.044C63.1255 19.244 63.4255 19.496 63.6495 19.8V18.852H65.3415V25.5H63.6495V24.528C63.4335 24.84 63.1335 25.1 62.7495 25.308C62.3735 25.508 61.9375 25.608 61.4415 25.608C60.8815 25.608 60.3695 25.464 59.9055 25.176C59.4495 24.888 59.0855 24.484 58.8135 23.964C58.5495 23.436 58.4175 22.832 58.4175 22.152ZM63.6495 22.176C63.6495 21.768 63.5695 21.42 63.4095 21.132C63.2495 20.836 63.0335 20.612 62.7615 20.46C62.4895 20.3 62.1975 20.22 61.8855 20.22C61.5735 20.22 61.2855 20.296 61.0215 20.448C60.7575 20.6 60.5415 20.824 60.3735 21.12C60.2135 21.408 60.1335 21.752 60.1335 22.152C60.1335 22.552 60.2135 22.904 60.3735 23.208C60.5415 23.504 60.7575 23.732 61.0215 23.892C61.2935 24.052 61.5815 24.132 61.8855 24.132C62.1975 24.132 62.4895 24.056 62.7615 23.904C63.0335 23.744 63.2495 23.52 63.4095 23.232C63.5695 22.936 63.6495 22.584 63.6495 22.176ZM68.6623 16.62V25.5H66.9823V16.62H68.6623ZM76.5021 22.032C76.5021 22.272 76.4861 22.488 76.4541 22.68H71.5941C71.6341 23.16 71.8021 23.536 72.0981 23.808C72.3941 24.08 72.7581 24.216 73.1901 24.216C73.8141 24.216 74.2581 23.948 74.5221 23.412H76.3341C76.1421 24.052 75.7741 24.58 75.2301 24.996C74.6861 25.404 74.0181 25.608 73.2261 25.608C72.5861 25.608 72.0101 25.468 71.4981 25.188C70.9941 24.9 70.5981 24.496 70.3101 23.976C70.0301 23.456 69.8901 22.856 69.8901 22.176C69.8901 21.488 70.0301 20.884 70.3101 20.364C70.5901 19.844 70.9821 19.444 71.4861 19.164C71.9901 18.884 72.5701 18.744 73.2261 18.744C73.8581 18.744 74.4221 18.88 74.9181 19.152C75.4221 19.424 75.8101 19.812 76.0821 20.316C76.3621 20.812 76.5021 21.384 76.5021 22.032ZM74.7621 21.552C74.7541 21.12 74.5981 20.776 74.2941 20.52C73.9901 20.256 73.6181 20.124 73.1781 20.124C72.7621 20.124 72.4101 20.252 72.1221 20.508C71.8421 20.756 71.6701 21.104 71.6061 21.552H74.7621ZM82.2678 19.812C82.4838 19.508 82.7798 19.256 83.1558 19.056C83.5398 18.848 83.9758 18.744 84.4638 18.744C85.0318 18.744 85.5438 18.884 85.9998 19.164C86.4638 19.444 86.8278 19.844 87.0918 20.364C87.3638 20.876 87.4998 21.472 87.4998 22.152C87.4998 22.832 87.3638 23.436 87.0918 23.964C86.8278 24.484 86.4638 24.888 85.9998 25.176C85.5438 25.464 85.0318 25.608 84.4638 25.608C83.9758 25.608 83.5438 25.508 83.1678 25.308C82.7998 25.108 82.4998 24.856 82.2678 24.552V28.668H80.5878V18.852H82.2678V19.812ZM85.7838 22.152C85.7838 21.752 85.6998 21.408 85.5318 21.12C85.3718 20.824 85.1558 20.6 84.8838 20.448C84.6198 20.296 84.3318 20.22 84.0198 20.22C83.7158 20.22 83.4278 20.3 83.1558 20.46C82.8918 20.612 82.6758 20.836 82.5078 21.132C82.3478 21.428 82.2678 21.776 82.2678 22.176C82.2678 22.576 82.3478 22.924 82.5078 23.22C82.6758 23.516 82.8918 23.744 83.1558 23.904C83.4278 24.056 83.7158 24.132 84.0198 24.132C84.3318 24.132 84.6198 24.052 84.8838 23.892C85.1558 23.732 85.3718 23.504 85.5318 23.208C85.6998 22.912 85.7838 22.56 85.7838 22.152ZM94.9006 22.032C94.9006 22.272 94.8846 22.488 94.8526 22.68H89.9926C90.0326 23.16 90.2006 23.536 90.4966 23.808C90.7926 24.08 91.1566 24.216 91.5886 24.216C92.2126 24.216 92.6566 23.948 92.9206 23.412H94.7326C94.5406 24.052 94.1726 24.58 93.6286 24.996C93.0846 25.404 92.4166 25.608 91.6246 25.608C90.9846 25.608 90.4086 25.468 89.8966 25.188C89.3926 24.9 88.9966 24.496 88.7086 23.976C88.4286 23.456 88.2886 22.856 88.2886 22.176C88.2886 21.488 88.4286 20.884 88.7086 20.364C88.9886 19.844 89.3806 19.444 89.8846 19.164C90.3886 18.884 90.9686 18.744 91.6246 18.744C92.2566 18.744 92.8206 18.88 93.3166 19.152C93.8206 19.424 94.2086 19.812 94.4806 20.316C94.7606 20.812 94.9006 21.384 94.9006 22.032ZM93.1606 21.552C93.1526 21.12 92.9966 20.776 92.6926 20.52C92.3886 20.256 92.0166 20.124 91.5766 20.124C91.1606 20.124 90.8086 20.252 90.5206 20.508C90.2406 20.756 90.0686 21.104 90.0046 21.552H93.1606ZM97.8068 16.62V25.5H96.1268V16.62H97.8068ZM102.419 25.608C101.779 25.608 101.203 25.468 100.691 25.188C100.179 24.9 99.7747 24.496 99.4787 23.976C99.1907 23.456 99.0467 22.856 99.0467 22.176C99.0467 21.496 99.1947 20.896 99.4907 20.376C99.7947 19.856 100.207 19.456 100.727 19.176C101.247 18.888 101.827 18.744 102.467 18.744C103.107 18.744 103.687 18.888 104.207 19.176C104.727 19.456 105.135 19.856 105.431 20.376C105.735 20.896 105.887 21.496 105.887 22.176C105.887 22.856 105.731 23.456 105.419 23.976C105.115 24.496 104.699 24.9 104.171 25.188C103.651 25.468 103.067 25.608 102.419 25.608ZM102.419 24.144C102.723 24.144 103.007 24.072 103.271 23.928C103.543 23.776 103.759 23.552 103.919 23.256C104.079 22.96 104.159 22.6 104.159 22.176C104.159 21.544 103.991 21.06 103.655 20.724C103.327 20.38 102.923 20.208 102.443 20.208C101.963 20.208 101.559 20.38 101.231 20.724C100.911 21.06 100.751 21.544 100.751 22.176C100.751 22.808 100.907 23.296 101.219 23.64C101.539 23.976 101.939 24.144 102.419 24.144ZM121.174 17.124L118.834 25.5H116.854L115.282 19.536L113.638 25.5L111.67 25.512L109.414 17.124H111.214L112.69 23.628L114.394 17.124H116.266L117.874 23.592L119.362 17.124H121.174ZM126.015 18.756C126.519 18.756 126.967 18.868 127.359 19.092C127.751 19.308 128.055 19.632 128.271 20.064C128.495 20.488 128.607 21 128.607 21.6V25.5H126.927V21.828C126.927 21.3 126.795 20.896 126.531 20.616C126.267 20.328 125.907 20.184 125.451 20.184C124.987 20.184 124.619 20.328 124.347 20.616C124.083 20.896 123.951 21.3 123.951 21.828V25.5H122.271V16.62H123.951V19.68C124.167 19.392 124.455 19.168 124.815 19.008C125.175 18.84 125.575 18.756 126.015 18.756ZM129.773 22.152C129.773 21.48 129.905 20.884 130.169 20.364C130.441 19.844 130.805 19.444 131.261 19.164C131.725 18.884 132.241 18.744 132.809 18.744C133.305 18.744 133.737 18.844 134.105 19.044C134.481 19.244 134.781 19.496 135.005 19.8V18.852H136.697V25.5H135.005V24.528C134.789 24.84 134.489 25.1 134.105 25.308C133.729 25.508 133.293 25.608 132.797 25.608C132.237 25.608 131.725 25.464 131.261 25.176C130.805 24.888 130.441 24.484 130.169 23.964C129.905 23.436 129.773 22.832 129.773 22.152ZM135.005 22.176C135.005 21.768 134.925 21.42 134.765 21.132C134.605 20.836 134.389 20.612 134.117 20.46C133.845 20.3 133.553 20.22 133.241 20.22C132.929 20.22 132.641 20.296 132.377 20.448C132.113 20.6 131.897 20.824 131.729 21.12C131.569 21.408 131.489 21.752 131.489 22.152C131.489 22.552 131.569 22.904 131.729 23.208C131.897 23.504 132.113 23.732 132.377 23.892C132.649 24.052 132.937 24.132 133.241 24.132C133.553 24.132 133.845 24.056 134.117 23.904C134.389 23.744 134.605 23.52 134.765 23.232C134.925 22.936 135.005 22.584 135.005 22.176ZM140.294 20.232V23.448C140.294 23.672 140.346 23.836 140.45 23.94C140.562 24.036 140.746 24.084 141.002 24.084H141.782V25.5H140.726C139.31 25.5 138.602 24.812 138.602 23.436V20.232H137.81V18.852H138.602V17.208H140.294V18.852H141.782V20.232H140.294ZM145.534 25.608C144.99 25.608 144.502 25.512 144.07 25.32C143.638 25.12 143.294 24.852 143.038 24.516C142.79 24.18 142.654 23.808 142.63 23.4H144.322C144.354 23.656 144.478 23.868 144.694 24.036C144.918 24.204 145.194 24.288 145.522 24.288C145.842 24.288 146.09 24.224 146.266 24.096C146.45 23.968 146.542 23.804 146.542 23.604C146.542 23.388 146.43 23.228 146.206 23.124C145.99 23.012 145.642 22.892 145.162 22.764C144.666 22.644 144.258 22.52 143.938 22.392C143.626 22.264 143.354 22.068 143.122 21.804C142.898 21.54 142.786 21.184 142.786 20.736C142.786 20.368 142.89 20.032 143.098 19.728C143.314 19.424 143.618 19.184 144.01 19.008C144.41 18.832 144.878 18.744 145.414 18.744C146.206 18.744 146.838 18.944 147.31 19.344C147.782 19.736 148.042 20.268 148.09 20.94H146.482C146.458 20.676 146.346 20.468 146.146 20.316C145.954 20.156 145.694 20.076 145.366 20.076C145.062 20.076 144.826 20.132 144.658 20.244C144.498 20.356 144.418 20.512 144.418 20.712C144.418 20.936 144.53 21.108 144.754 21.228C144.978 21.34 145.326 21.456 145.798 21.576C146.278 21.696 146.674 21.82 146.986 21.948C147.298 22.076 147.566 22.276 147.79 22.548C148.022 22.812 148.142 23.164 148.15 23.604C148.15 23.988 148.042 24.332 147.826 24.636C147.618 24.94 147.314 25.18 146.914 25.356C146.522 25.524 146.062 25.608 145.534 25.608ZM149.097 22.152C149.097 21.48 149.229 20.884 149.493 20.364C149.765 19.844 150.129 19.444 150.585 19.164C151.049 18.884 151.565 18.744 152.133 18.744C152.629 18.744 153.061 18.844 153.429 19.044C153.805 19.244 154.105 19.496 154.329 19.8V18.852H156.021V25.5H154.329V24.528C154.113 24.84 153.813 25.1 153.429 25.308C153.053 25.508 152.617 25.608 152.121 25.608C151.561 25.608 151.049 25.464 150.585 25.176C150.129 24.888 149.765 24.484 149.493 23.964C149.229 23.436 149.097 22.832 149.097 22.152ZM154.329 22.176C154.329 21.768 154.249 21.42 154.089 21.132C153.929 20.836 153.713 20.612 153.441 20.46C153.169 20.3 152.877 20.22 152.565 20.22C152.253 20.22 151.965 20.296 151.701 20.448C151.437 20.6 151.221 20.824 151.053 21.12C150.893 21.408 150.813 21.752 150.813 22.152C150.813 22.552 150.893 22.904 151.053 23.208C151.221 23.504 151.437 23.732 151.701 23.892C151.973 24.052 152.261 24.132 152.565 24.132C152.877 24.132 153.169 24.056 153.441 23.904C153.713 23.744 153.929 23.52 154.089 23.232C154.249 22.936 154.329 22.584 154.329 22.176ZM159.342 19.812C159.558 19.508 159.854 19.256 160.23 19.056C160.614 18.848 161.05 18.744 161.538 18.744C162.106 18.744 162.618 18.884 163.074 19.164C163.538 19.444 163.902 19.844 164.166 20.364C164.438 20.876 164.574 21.472 164.574 22.152C164.574 22.832 164.438 23.436 164.166 23.964C163.902 24.484 163.538 24.888 163.074 25.176C162.618 25.464 162.106 25.608 161.538 25.608C161.05 25.608 160.618 25.508 160.242 25.308C159.874 25.108 159.574 24.856 159.342 24.552V28.668H157.662V18.852H159.342V19.812ZM162.858 22.152C162.858 21.752 162.774 21.408 162.606 21.12C162.446 20.824 162.23 20.6 161.958 20.448C161.694 20.296 161.406 20.22 161.094 20.22C160.79 20.22 160.502 20.3 160.23 20.46C159.966 20.612 159.75 20.836 159.582 21.132C159.422 21.428 159.342 21.776 159.342 22.176C159.342 22.576 159.422 22.924 159.582 23.22C159.75 23.516 159.966 23.744 160.23 23.904C160.502 24.056 160.79 24.132 161.094 24.132C161.406 24.132 161.694 24.052 161.958 23.892C162.23 23.732 162.446 23.504 162.606 23.208C162.774 22.912 162.858 22.56 162.858 22.152ZM167.475 19.812C167.691 19.508 167.987 19.256 168.363 19.056C168.747 18.848 169.183 18.744 169.671 18.744C170.239 18.744 170.751 18.884 171.207 19.164C171.671 19.444 172.035 19.844 172.299 20.364C172.571 20.876 172.707 21.472 172.707 22.152C172.707 22.832 172.571 23.436 172.299 23.964C172.035 24.484 171.671 24.888 171.207 25.176C170.751 25.464 170.239 25.608 169.671 25.608C169.183 25.608 168.751 25.508 168.375 25.308C168.007 25.108 167.707 24.856 167.475 24.552V28.668H165.795V18.852H167.475V19.812ZM170.991 22.152C170.991 21.752 170.907 21.408 170.739 21.12C170.579 20.824 170.363 20.6 170.091 20.448C169.827 20.296 169.539 20.22 169.227 20.22C168.923 20.22 168.635 20.3 168.363 20.46C168.099 20.612 167.883 20.836 167.715 21.132C167.555 21.428 167.475 21.776 167.475 22.176C167.475 22.576 167.555 22.924 167.715 23.22C167.883 23.516 168.099 23.744 168.363 23.904C168.635 24.056 168.923 24.132 169.227 24.132C169.539 24.132 169.827 24.052 170.091 23.892C170.363 23.732 170.579 23.504 170.739 23.208C170.907 22.912 170.991 22.56 170.991 22.152ZM176.1 16.98L175.908 22.776H174.492L174.288 16.98H176.1ZM175.236 25.584C174.932 25.584 174.68 25.492 174.48 25.308C174.288 25.116 174.192 24.88 174.192 24.6C174.192 24.32 174.288 24.088 174.48 23.904C174.68 23.712 174.932 23.616 175.236 23.616C175.532 23.616 175.776 23.712 175.968 23.904C176.16 24.088 176.256 24.32 176.256 24.6C176.256 24.88 176.16 25.116 175.968 25.308C175.776 25.492 175.532 25.584 175.236 25.584Z" fill="#111111"/>
</g>
<defs>
<filter id="filter0_d_82_14" x="0" y="0" width="204" height="44" filterUnits="userSpaceOnUse" color-interpolation-filters="sRGB">
<feFlood flood-opacity="0" result="BackgroundImageFix"/>
<feColorMatrix in="SourceAlpha" type="matrix" values="0 0 0 0 0 0 0 0 0 0 0 0 0 0 0 0 0 0 127 0" result="hardAlpha"/>
<feOffset dy="1"/>
<feGaussianBlur stdDeviation="1"/>
<feComposite in2="hardAlpha" operator="out"/>
<feColorMatrix type="matrix" values="0 0 0 0 0 0 0 0 0 0 0 0 0 0 0 0 0 0 0.1 0"/>
<feBlend mode="normal" in2="BackgroundImageFix" result="effect1_dropShadow_82_14"/>
<feBlend mode="normal" in="SourceGraphic" in2="effect1_dropShadow_82_14" result="shape"/>
</filter>
</defs>
</svg>
