<svg width="26" height="25" viewBox="0 0 26 25" fill="none" xmlns="http://www.w3.org/2000/svg">
<g filter="url(#filter0_d_17_30)">
<path d="M5.43023 0.866267C5.79174 0.71386 6.20897 0.786924 6.49718 1.05311L21.113 14.5519C21.6471 15.0452 21.4929 15.9255 20.8229 16.208V16.208C20.4614 16.3604 20.0442 16.2873 19.756 16.0211L5.14022 2.52235C4.6061 2.02904 4.76026 1.14872 5.43023 0.866267V0.866267Z" fill="black"/>
<path d="M4.8693 15.7164C4.74335 15.3448 4.84631 14.934 5.13258 14.6657L19.6501 1.06125C20.1806 0.564089 21.0475 0.781319 21.2809 1.46991V1.46991C21.4069 1.84147 21.3039 2.25235 21.0176 2.52061L6.50016 16.1251C5.96962 16.6222 5.10271 16.405 4.8693 15.7164V15.7164Z" fill="black"/>
</g>
<defs>
<filter id="filter0_d_17_30" x="0.816406" y="0.787598" width="24.6182" height="23.6084" filterUnits="userSpaceOnUse" color-interpolation-filters="sRGB">
<feFlood flood-opacity="0" result="BackgroundImageFix"/>
<feColorMatrix in="SourceAlpha" type="matrix" values="0 0 0 0 0 0 0 0 0 0 0 0 0 0 0 0 0 0 127 0" result="hardAlpha"/>
<feOffset dy="4"/>
<feGaussianBlur stdDeviation="2"/>
<feComposite in2="hardAlpha" operator="out"/>
<feColorMatrix type="matrix" values="0 0 0 0 0 0 0 0 0 0 0 0 0 0 0 0 0 0 0.25 0"/>
<feBlend mode="normal" in2="BackgroundImageFix" result="effect1_dropShadow_17_30"/>
<feBlend mode="normal" in="SourceGraphic" in2="effect1_dropShadow_17_30" result="shape"/>
</filter>
</defs>
</svg>
