<svg width="14" height="12" viewBox="0 0 14 12" fill="none" xmlns="http://www.w3.org/2000/svg">
<path d="M12.8507 0.499756H1.64974C0.880269 0.499756 0.256964 1.12978 0.256964 1.90009L0.250244 10.3004C0.250244 11.0707 0.880269 11.7008 1.64974 11.7008H12.8507C13.6202 11.7008 14.2502 11.0707 14.2502 10.3004V1.90009C14.2502 1.12978 13.6202 0.499756 12.8507 0.499756ZM12.5702 3.47515L7.62154 6.56984C7.50989 6.63858 7.38136 6.67498 7.25024 6.67498C7.11913 6.67498 6.99059 6.63858 6.87895 6.56984L1.93031 3.47515C1.8611 3.43526 1.80063 3.38183 1.75252 3.31805C1.7044 3.25427 1.66964 3.18145 1.65028 3.10394C1.63093 3.02643 1.6274 2.94581 1.63989 2.8669C1.65237 2.788 1.68063 2.71241 1.72298 2.64467C1.76532 2.57692 1.82087 2.5184 1.88633 2.47259C1.95179 2.42679 2.0258 2.39464 2.10395 2.37807C2.1821 2.3615 2.26279 2.36084 2.34121 2.37614C2.41962 2.39144 2.49414 2.42238 2.56034 2.46711L7.25024 5.40051L11.9402 2.46711C12.0063 2.42238 12.0809 2.39144 12.1593 2.37614C12.2377 2.36084 12.3184 2.3615 12.3965 2.37807C12.4747 2.39464 12.5487 2.42679 12.6142 2.47259C12.6796 2.5184 12.7352 2.57692 12.7775 2.64467C12.8199 2.71241 12.8481 2.788 12.8606 2.8669C12.8731 2.94581 12.8696 3.02643 12.8502 3.10394C12.8309 3.18145 12.7961 3.25427 12.748 3.31805C12.6999 3.38183 12.6394 3.43526 12.5702 3.47515V3.47515Z" fill="#539834"/>
</svg>
