<svg width="30" height="30" viewBox="0 0 30 30" fill="none" xmlns="http://www.w3.org/2000/svg">
<path d="M25.0005 4.99902H4.99949C3.62549 4.99902 2.51249 6.12402 2.51249 7.49952L2.50049 22.4995C2.50049 23.875 3.62549 25 4.99949 25H25.0005C26.3745 25 27.4995 23.875 27.4995 22.4995V7.49952C27.4995 6.12402 26.3745 4.99902 25.0005 4.99902ZM24.4995 10.312L15.663 15.838C15.4636 15.9608 15.2341 16.0258 15 16.0258C14.7659 16.0258 14.5363 15.9608 14.337 15.838L5.50049 10.312C5.37689 10.2408 5.26892 10.1454 5.18301 10.0315C5.0971 9.9176 5.03501 9.78757 5.00046 9.64917C4.96591 9.51076 4.95959 9.36681 4.98189 9.22591C5.00419 9.085 5.05465 8.95004 5.13026 8.82907C5.20587 8.7081 5.30507 8.6036 5.42195 8.52181C5.53883 8.44002 5.67099 8.38262 5.81055 8.35302C5.9501 8.32343 6.09419 8.32226 6.2342 8.34958C6.37422 8.3769 6.50729 8.43215 6.62549 8.51202L15 13.75L23.3745 8.51202C23.4927 8.43215 23.6258 8.3769 23.7658 8.34958C23.9058 8.32226 24.0499 8.32343 24.1894 8.35302C24.329 8.38262 24.4611 8.44002 24.578 8.52181C24.6949 8.6036 24.7941 8.7081 24.8697 8.82907C24.9453 8.95004 24.9958 9.085 25.0181 9.22591C25.0404 9.36681 25.0341 9.51076 24.9995 9.64917C24.965 9.78757 24.9029 9.9176 24.817 10.0315C24.7311 10.1454 24.6231 10.2408 24.4995 10.312Z" fill="#539834"/>
</svg>
