<svg width="218" height="48" viewBox="0 0 218 48" fill="none" xmlns="http://www.w3.org/2000/svg">
<rect x="114" y="42" width="96" height="3" rx="1.5" fill="#539834"/>
<path d="M22.2 18.48C21.56 17.3067 20.68 16.4133 19.56 15.8C18.44 15.1867 17.1333 14.88 15.64 14.88C13.9867 14.88 12.52 15.2533 11.24 16C9.96 16.7467 8.96 17.8133 8.24 19.2C7.52 20.5867 7.16 22.1867 7.16 24C7.16 25.8667 7.52 27.4933 8.24 28.88C8.98667 30.2667 10.0133 31.3333 11.32 32.08C12.6267 32.8267 14.1467 33.2 15.88 33.2C18.0133 33.2 19.76 32.64 21.12 31.52C22.48 30.3733 23.3733 28.7867 23.8 26.76H14.2V22.48H29.32V27.36C28.9467 29.3067 28.1467 31.1067 26.92 32.76C25.6933 34.4133 24.1067 35.7467 22.16 36.76C20.24 37.7467 18.08 38.24 15.68 38.24C12.9867 38.24 10.5467 37.64 8.36 36.44C6.2 35.2133 4.49333 33.52 3.24 31.36C2.01333 29.2 1.4 26.7467 1.4 24C1.4 21.2533 2.01333 18.8 3.24 16.64C4.49333 14.4533 6.2 12.76 8.36 11.56C10.5467 10.3333 12.9733 9.72 15.64 9.72C18.7867 9.72 21.52 10.4933 23.84 12.04C26.16 13.56 27.76 15.7067 28.64 18.48H22.2ZM39.0631 14.6V21.6H48.4631V26.04H39.0631V33.44H49.6631V38H33.4631V10.04H49.6631V14.6H39.0631ZM78.6322 38H73.0322L60.3522 18.84V38H54.7522V10.04H60.3522L73.0322 29.24V10.04H78.6322V38ZM97.1263 38.28C94.5129 38.28 92.1129 37.6667 89.9263 36.44C87.7396 35.2133 86.0063 33.52 84.7263 31.36C83.4463 29.1733 82.8063 26.7067 82.8063 23.96C82.8063 21.24 83.4463 18.8 84.7263 16.64C86.0063 14.4533 87.7396 12.7467 89.9263 11.52C92.1129 10.2933 94.5129 9.68 97.1263 9.68C99.7663 9.68 102.166 10.2933 104.326 11.52C106.513 12.7467 108.233 14.4533 109.486 16.64C110.766 18.8 111.406 21.24 111.406 23.96C111.406 26.7067 110.766 29.1733 109.486 31.36C108.233 33.52 106.513 35.2133 104.326 36.44C102.14 37.6667 99.7396 38.28 97.1263 38.28ZM97.1263 33.28C98.8063 33.28 100.286 32.9067 101.566 32.16C102.846 31.3867 103.846 30.2933 104.566 28.88C105.286 27.4667 105.646 25.8267 105.646 23.96C105.646 22.0933 105.286 20.4667 104.566 19.08C103.846 17.6667 102.846 16.5867 101.566 15.84C100.286 15.0933 98.8063 14.72 97.1263 14.72C95.4463 14.72 93.9529 15.0933 92.6463 15.84C91.3663 16.5867 90.3663 17.6667 89.6463 19.08C88.9263 20.4667 88.5663 22.0933 88.5663 23.96C88.5663 25.8267 88.9263 27.4667 89.6463 28.88C90.3663 30.2933 91.3663 31.3867 92.6463 32.16C93.9529 32.9067 95.4463 33.28 97.1263 33.28ZM132.293 38L126.253 28.6L120.773 38H114.453L123.253 23.92L114.333 10.08H120.773L126.813 19.44L132.253 10.08H138.573L129.813 24.12L138.733 38H132.293ZM148.594 10.08V38H142.994V10.08H148.594ZM163.887 10.08C166.821 10.08 169.394 10.6533 171.607 11.8C173.847 12.9467 175.567 14.5867 176.767 16.72C177.994 18.8267 178.607 21.28 178.607 24.08C178.607 26.88 177.994 29.3333 176.767 31.44C175.567 33.52 173.847 35.1333 171.607 36.28C169.394 37.4267 166.821 38 163.887 38H154.127V10.08H163.887ZM163.687 33.24C166.621 33.24 168.887 32.44 170.487 30.84C172.087 29.24 172.887 26.9867 172.887 24.08C172.887 21.1733 172.087 18.9067 170.487 17.28C168.887 15.6267 166.621 14.8 163.687 14.8H159.727V33.24H163.687ZM188.399 10.08V38H182.799V10.08H188.399ZM199.532 33.56H208.732V38H193.932V10.08H199.532V33.56Z" fill="#111111"/>
</svg>
