<svg width="23" height="16" viewBox="0 0 23 16" fill="none" xmlns="http://www.w3.org/2000/svg">
<path d="M0.64393 0.572828C0.80483 0.22366 1.15416 0 1.53862 0H21.4614C22.18 0 22.6568 0.744688 22.3561 1.39739C22.1952 1.74656 21.8458 1.97022 21.4614 1.97022H1.53862C0.81995 1.97022 0.343159 1.22553 0.64393 0.572828Z" fill="black"/>
<path d="M0.64393 14.3643C0.80483 14.0152 1.15416 13.7915 1.53862 13.7915H21.4614C22.18 13.7915 22.6568 14.5362 22.3561 15.1889C22.1952 15.5381 21.8458 15.7617 21.4614 15.7617H1.53862C0.81995 15.7617 0.343159 15.017 0.64393 14.3643Z" fill="black"/>
<path d="M0.488772 7.54012C0.631504 7.15294 1.00042 6.89575 1.41307 6.89575H16.9869C17.6724 6.89575 18.1483 7.57844 17.9112 8.2216C17.7685 8.60878 17.3996 8.86597 16.9869 8.86597H1.41307C0.727595 8.86597 0.251671 8.18328 0.488772 7.54012Z" fill="black"/>
</svg>
