<svg width="13" height="12" viewBox="0 0 13 12" fill="none" xmlns="http://www.w3.org/2000/svg">
<path d="M12.878 7.75545L10.8982 7.58939C10.6656 7.56939 10.4297 7.58832 10.2085 7.64478C9.98723 7.70123 9.78629 7.79373 9.62074 7.91534L8.18614 8.96729C5.9741 8.1417 4.17611 6.82243 3.05095 5.19934L4.4921 4.14122C4.82783 3.89556 4.99149 3.55246 4.93632 3.20318L4.71093 1.76215C4.66664 1.48315 4.48407 1.22583 4.19798 1.0392C3.91189 0.85256 3.54225 0.74963 3.15944 0.750001H1.81181C0.930853 0.750001 0.198591 1.28798 0.252832 1.9337C0.666191 6.81741 5.98842 10.7171 12.6368 11.0204C13.5168 11.0602 14.25 10.5229 14.25 9.87651V8.88769C14.2519 8.60803 14.1129 8.33771 13.8596 8.12871C13.6064 7.9197 13.2568 7.78677 12.878 7.75545V7.75545Z" fill="#539834"/>
</svg>
