<svg width="30" height="30" viewBox="0 0 30 30" fill="none" xmlns="http://www.w3.org/2000/svg">
<path d="M24.7545 18.7363L21.579 18.4699C21.2059 18.4378 20.8276 18.4682 20.4728 18.5588C20.1179 18.6493 19.7956 18.7977 19.53 18.9927L17.229 20.68C13.6811 19.3558 10.7972 17.2398 8.99254 14.6365L11.304 12.9393C11.8425 12.5453 12.105 11.995 12.0165 11.4347L11.655 9.12342C11.584 8.67592 11.2912 8.26321 10.8323 7.96385C10.3734 7.6645 9.78055 7.49941 9.16654 7.5H7.00504C5.59204 7.5 4.41754 8.36289 4.50454 9.39858C5.16754 17.2317 13.704 23.4866 24.3675 23.9731C25.779 24.0369 26.955 23.1751 26.955 22.1383V20.5523C26.9581 20.1038 26.7352 19.6702 26.329 19.335C25.9228 18.9997 25.362 18.7865 24.7545 18.7363Z" fill="#539834"/>
</svg>
